<svg width="100" height="114" viewBox="0 0 100 114" fill="none" xmlns="http://www.w3.org/2000/svg">
<g clip-path="url(#clip0_34_85)">
<path d="M14.0288 93.4964L6.69545 89.3164L6.94305 88.882L3.27639 86.792C1.55983 85.8136 0.5 83.9896 0.5 82.0137V77.8448H0V69.5069H0.5V61.169H0V52.831H0.5V44.4931H0V36.1552H0.5V31.9863C0.5 30.0104 1.55983 28.1864 3.27638 27.208L6.94305 25.118L6.69545 24.6836L14.0288 20.5036L14.2764 20.938L21.6097 16.758L21.3621 16.3236L28.6954 12.1436L28.9431 12.578L36.2764 8.39798L36.0288 7.96359L43.3621 3.78359L43.6097 4.21798L47.2764 2.12798C48.9646 1.16568 51.0354 1.16568 52.7236 2.12798L56.3903 4.21798L56.6379 3.78359L63.9712 7.96359L63.7236 8.39798L71.0569 12.578L71.3046 12.1436L78.6379 16.3236L78.3903 16.758L85.7236 20.938L85.9712 20.5036L93.3046 24.6836L93.0569 25.118L96.7236 27.208C98.4402 28.1864 99.5 30.0104 99.5 31.9863V36.1552H100V44.4931H99.5V52.831H100V61.169H99.5V69.5069H100V77.8448H99.5V82.0137C99.5 83.9896 98.4402 85.8136 96.7236 86.792L93.057 88.882L93.3046 89.3164L85.9712 93.4964L85.7236 93.062L78.3903 97.242L78.6379 97.6764L71.3046 101.856L71.0569 101.422L63.7236 105.602L63.9712 106.036L56.6379 110.216L56.3903 109.782L52.7236 111.872C51.0354 112.834 48.9646 112.834 47.2764 111.872L43.6097 109.782L43.3621 110.216L36.0288 106.036L36.2764 105.602L28.9431 101.422L28.6954 101.856L21.3621 97.6764L21.6097 97.242L14.2764 93.062L14.0288 93.4964Z" stroke="url(#paint0_linear_34_85)" stroke-dasharray="8 8"/>
<path d="M36.5731 26.5033L43.5731 22.5915L43.817 23.028L47.317 21.0721C48.9843 20.1404 51.0157 20.1404 52.683 21.0721L56.183 23.028L56.4269 22.5915L63.4269 26.5033L63.183 26.9398L70.183 30.8515L70.4269 30.415L77.4269 34.3268L77.183 34.7633L80.683 36.7192C82.4224 37.6912 83.5 39.5278 83.5 41.5204V45.3903H84V53.1301H83.5V60.8699H84V68.6097H83.5V72.4796C83.5 74.4722 82.4224 76.3088 80.683 77.2808L77.183 79.2367L77.4269 79.6732L70.4269 83.585L70.183 83.1485L63.183 87.0602L63.4269 87.4967L56.4269 91.4085L56.183 90.972L52.683 92.9279C51.0157 93.8596 48.9843 93.8596 47.317 92.9279L43.817 90.972L43.5731 91.4085L36.5731 87.4967L36.817 87.0602L29.817 83.1485L29.5731 83.585L22.5731 79.6732L22.817 79.2367L19.317 77.2808C17.5776 76.3088 16.5 74.4722 16.5 72.4796V68.6097H16V60.8699H16.5V53.1301H16V45.3903H16.5V41.5204C16.5 39.5278 17.5776 37.6912 19.317 36.7192L22.817 34.7633L22.5731 34.3268L29.5731 30.415L29.817 30.8515L36.817 26.9398L36.5731 26.5033Z" fill="#13171D" stroke="black" stroke-dasharray="8 8"/>
<path opacity="0.1" d="M22 45.0366C22 42.8543 23.1849 40.8441 25.0941 39.7872L47.0941 27.6086C48.9021 26.6078 51.0979 26.6078 52.9059 27.6086L74.9059 39.7872C76.8151 40.8441 78 42.8543 78 45.0366V68.9634C78 71.1457 76.8151 73.1559 74.9059 74.2128L52.9059 86.3914C51.0979 87.3922 48.9021 87.3922 47.0941 86.3914L25.0941 74.2128C23.1849 73.1559 22 71.1457 22 68.9634V45.0366Z" fill="white"/>
<g clip-path="url(#clip1_34_85)">
<g clip-path="url(#clip2_34_85)">
<path fill-rule="evenodd" clip-rule="evenodd" d="M47.0208 64.0416C52.5552 64.0416 57.0417 59.5552 57.0417 54.0208C57.0417 53.6877 57.0254 53.3585 56.9937 53.0337C55.813 52.3498 54.4418 51.9583 52.9792 51.9583C48.5494 51.9583 44.9583 55.5494 44.9583 59.9791C44.9583 61.4418 45.3498 62.813 46.0338 63.9936C46.3585 64.0254 46.6878 64.0416 47.0208 64.0416ZM43.5688 63.4312C43.1739 62.355 42.9583 61.1922 42.9583 59.9791C42.9583 54.4448 47.4448 49.9583 52.9792 49.9583C54.1923 49.9583 55.355 50.1739 56.4312 50.5688C55.0245 46.7352 51.3421 44 47.0208 44C41.4865 44 37 48.4865 37 54.0208C37 58.3421 39.7352 62.0245 43.5688 63.4312Z" fill="white"/>
<path fill-rule="evenodd" clip-rule="evenodd" d="M46.0333 63.9937C45.1753 63.9098 44.3491 63.7177 43.5684 63.4312C44.9751 67.2648 48.6575 70 52.9787 70C58.5131 70 62.9996 65.5135 62.9996 59.9792C62.9996 55.658 60.2644 51.9756 56.4308 50.5688C56.7173 51.3496 56.9094 52.1758 56.9932 53.0338C59.3884 54.4212 60.9996 57.0121 60.9996 59.9792C60.9996 64.409 57.4085 68 52.9787 68C50.0116 68 47.4207 66.3889 46.0333 63.9937Z" fill="white"/>
</g>
</g>
</g>
<defs>
<linearGradient id="paint0_linear_34_85" x1="7.45058e-07" y1="57" x2="100" y2="57" gradientUnits="userSpaceOnUse">
<stop stop-color="#3D8BFF"/>
<stop offset="1" stop-color="#AB23FF"/>
</linearGradient>
<clipPath id="clip0_34_85">
<rect width="100" height="114" fill="white"/>
</clipPath>
<clipPath id="clip1_34_85">
<rect width="26" height="26" fill="white" transform="translate(37 44)"/>
</clipPath>
<clipPath id="clip2_34_85">
<rect width="26" height="26" fill="white" transform="translate(37 44)"/>
</clipPath>
</defs>
</svg>
