<svg width="100" height="114" viewBox="0 0 100 114" fill="none" xmlns="http://www.w3.org/2000/svg">
<g clip-path="url(#clip0_34_63)">
<path d="M14.0288 93.4964L6.69545 89.3164L6.94305 88.882L3.27639 86.792C1.55983 85.8136 0.5 83.9896 0.5 82.0137V77.8448H0V69.5069H0.5V61.169H0V52.831H0.5V44.4931H0V36.1552H0.5V31.9863C0.5 30.0104 1.55983 28.1864 3.27638 27.208L6.94305 25.118L6.69545 24.6836L14.0288 20.5036L14.2764 20.938L21.6097 16.758L21.3621 16.3236L28.6954 12.1436L28.9431 12.578L36.2764 8.39798L36.0288 7.96359L43.3621 3.78359L43.6097 4.21798L47.2764 2.12798C48.9646 1.16568 51.0354 1.16568 52.7236 2.12798L56.3903 4.21798L56.6379 3.78359L63.9712 7.96359L63.7236 8.39798L71.0569 12.578L71.3046 12.1436L78.6379 16.3236L78.3903 16.758L85.7236 20.938L85.9712 20.5036L93.3046 24.6836L93.0569 25.118L96.7236 27.208C98.4402 28.1864 99.5 30.0104 99.5 31.9863V36.1552H100V44.4931H99.5V52.831H100V61.169H99.5V69.5069H100V77.8448H99.5V82.0137C99.5 83.9896 98.4402 85.8136 96.7236 86.792L93.057 88.882L93.3046 89.3164L85.9712 93.4964L85.7236 93.062L78.3903 97.242L78.6379 97.6764L71.3046 101.856L71.0569 101.422L63.7236 105.602L63.9712 106.036L56.6379 110.216L56.3903 109.782L52.7236 111.872C51.0354 112.834 48.9646 112.834 47.2764 111.872L43.6097 109.782L43.3621 110.216L36.0288 106.036L36.2764 105.602L28.9431 101.422L28.6954 101.856L21.3621 97.6764L21.6097 97.242L14.2764 93.062L14.0288 93.4964Z" stroke="url(#paint0_linear_34_63)" stroke-dasharray="8 8"/>
<path d="M16 41.5204C16 39.3467 17.1756 37.343 19.0731 36.2827L47.0731 20.6356C48.892 19.6192 51.108 19.6192 52.9269 20.6356L80.9269 36.2827C82.8244 37.343 84 39.3467 84 41.5204V72.4796C84 74.6533 82.8244 76.657 80.9269 77.7173L52.9269 93.3644C51.108 94.3808 48.892 94.3808 47.0731 93.3644L19.0731 77.7173C17.1756 76.657 16 74.6533 16 72.4796V41.5204Z" fill="#13171D"/>
<path d="M38.8441 32.1756L44.3441 29.1309L44.5863 29.5684L47.3363 28.0461C48.9936 27.1286 51.0064 27.1286 52.6637 28.0461L55.4137 29.5684L55.6559 29.1309L61.1559 32.1756L60.9137 32.613L66.4137 35.6577L66.6559 35.2202L72.1559 38.2649L71.9137 38.7023L74.6637 40.2246C76.4139 41.1935 77.5 43.0361 77.5 45.0366V51.0183H78V62.9817H77.5V68.9634C77.5 70.9639 76.4139 72.8065 74.6637 73.7754L71.9137 75.2977L72.1559 75.7351L66.6559 78.7798L66.4137 78.3423L60.9137 81.387L61.1559 81.8244L55.6559 84.8691L55.4137 84.4316L52.6637 85.9539C51.0064 86.8714 48.9936 86.8714 47.3363 85.9539L44.5863 84.4316L44.3441 84.8691L38.8441 81.8244L39.0863 81.387L33.5863 78.3423L33.3441 78.7798L27.8441 75.7351L28.0863 75.2977L25.3363 73.7754C23.5861 72.8065 22.5 70.9639 22.5 68.9634V62.9817H22V51.0183H22.5V45.0366C22.5 43.0361 23.5861 41.1935 25.3363 40.2246L28.0863 38.7023L27.8441 38.2649L33.3441 35.2202L33.5863 35.6577L39.0863 32.613L38.8441 32.1756Z" fill="#46505F" stroke="black" stroke-dasharray="8 8"/>
<path d="M54.2727 45V46.7143H56.7411L50.4545 52.3594L47.5909 49.7879L39.2797 57.2511L40.6294 58.4632L47.5909 52.212L50.4545 54.7835L58.0909 47.9263V50.1428H60V45H54.2727ZM54.2727 54.4285V69H60V54.4285H54.2727ZM46.6364 57.8572V69H52.3636V57.8572H46.6364ZM39 60.4285V69H44.7273V60.4285H39Z" fill="white"/>
</g>
<defs>
<linearGradient id="paint0_linear_34_63" x1="7.45058e-07" y1="57" x2="100" y2="57" gradientUnits="userSpaceOnUse">
<stop stop-color="#3D8BFF"/>
<stop offset="1" stop-color="#AB23FF"/>
</linearGradient>
<clipPath id="clip0_34_63">
<rect width="100" height="114" fill="white"/>
</clipPath>
</defs>
</svg>
